<svg width="15" height="18" viewBox="0 0 15 18" fill="none" xmlns="http://www.w3.org/2000/svg">
<path d="M4.52679 0.592634L4.28571 1.07143H1.07143C0.478795 1.07143 0 1.55022 0 2.14286C0 2.73549 0.478795 3.21429 1.07143 3.21429H13.9286C14.5212 3.21429 15 2.73549 15 2.14286C15 1.55022 14.5212 1.07143 13.9286 1.07143H10.7143L10.4732 0.592634C10.2924 0.227679 9.92076 0 9.51562 0H5.48438C5.07924 0 4.70759 0.227679 4.52679 0.592634ZM13.9286 4.28571H1.07143L1.78125 15.6362C1.83482 16.4833 2.53795 17.1429 3.38504 17.1429H11.615C12.4621 17.1429 13.1652 16.4833 13.2187 15.6362L13.9286 4.28571Z" fill="white"/>
</svg>
